inDegrees=no
num_controls=7
num_derivatives=13
num_iterations=138
num_multipliers=7
num_parameters=0
num_slacks=7
num_states=26
objective=0.522184
objective_accelerations=0.020306
objective_balance=0.002214
objective_effort=0.042775
objective_height=0.445582
objective_ligament=0.011308
solver_duration=1753.606664
status=Solve_Succeeded
success=true
DataType=double
version=3
OpenSimVersion=4.5
endheader
time	/jointset/ground_pelvis/pelvis_tilt/value	/jointset/ground_pelvis/pelvis_tx/value	/jointset/ground_pelvis/pelvis_ty/value	/jointset/hip_l/hip_flexion_l/value	/jointset/hip_l/hip_adduction_l/value	/jointset/hip_l/hip_rotation_l/value	/jointset/back/lumbar_extension/value	/jointset/patellofemoral_l/patellar_flexion_l/value	/jointset/knee_l/knee_flexion_l/value	/jointset/knee_l/knee_adduction_l/value	/jointset/knee_l/knee_rotation_l/value	/jointset/ankle_l/ankle_angle_l/value	/jointset/subtalar_l/subtalar_angle_l/value	/jointset/ground_pelvis/pelvis_tilt/speed	/jointset/ground_pelvis/pelvis_tx/speed	/jointset/ground_pelvis/pelvis_ty/speed	/jointset/hip_l/hip_flexion_l/speed	/jointset/hip_l/hip_adduction_l/speed	/jointset/hip_l/hip_rotation_l/speed	/jointset/back/lumbar_extension/speed	/jointset/patellofemoral_l/patellar_flexion_l/speed	/jointset/knee_l/knee_flexion_l/speed	/jointset/knee_l/knee_adduction_l/speed	/jointset/knee_l/knee_rotation_l/speed	/jointset/ankle_l/ankle_angle_l/speed	/jointset/subtalar_l/subtalar_angle_l/speed	/forceset/tau_hip_flexion_l	/forceset/tau_hip_adduction_l	/forceset/tau_hip_rotation_l	/forceset/tau_knee_flexion_l	/forceset/tau_ankle_angle_l	/forceset/tau_subtalar_angle_l	/forceset/tau_lumbar_extension	lambda_cid13_p0	lambda_cid13_p1	lambda_cid13_p2	lambda_cid13_p3	lambda_cid13_p4	lambda_cid13_p5	lambda_cid14_p0	/jointset/ground_pelvis/pelvis_tilt/accel	/jointset/ground_pelvis/pelvis_tx/accel	/jointset/ground_pelvis/pelvis_ty/accel	/jointset/hip_l/hip_flexion_l/accel	/jointset/hip_l/hip_adduction_l/accel	/jointset/hip_l/hip_rotation_l/accel	/jointset/back/lumbar_extension/accel	/jointset/patellofemoral_l/patellar_flexion_l/accel	/jointset/knee_l/knee_flexion_l/accel	/jointset/knee_l/knee_adduction_l/accel	/jointset/knee_l/knee_rotation_l/accel	/jointset/ankle_l/ankle_angle_l/accel	/jointset/subtalar_l/subtalar_angle_l/accel	gamma_cid13_p0	gamma_cid13_p1	gamma_cid13_p2	gamma_cid13_p3	gamma_cid13_p4	gamma_cid13_p5	gamma_cid14_p0
0	-0.03682385464111095	0.05667790858850433	0.920341572017311	0.3085816938045678	-0.2956402787395439	-0.3016072676965535	-0.3879492264334186	0.2499269421184958	0.2499269421184919	-0.1745327788650652	-0.1745326501088132	-0.0008036623358878681	0.0004378050849222152	0	0	0	0	0	0	0	0	0	0	0	0	0	0.07092093279253574	-0.0433328605403324	-0.02135067050582245	-0.2521986466907482	0.1950984369512163	-0.01494321586625692	0.009047882928342198	17.61356727274951	0.8469221459066413	2.333559002433698	12.67792767107299	-644.8650954764473	-75.30258218766757	-23.19706373956865	-1.407512508960882	-1.910750492402626	-0.613031170941257	6.705369580743167	-0.1333529300434612	1.508963068127511	-6.535335598516587	4.365872238191201	4.365872238191357	1.109472125012036	-0.00328743396077015	-0.6016364293456841	-0.3652752955154357	8.452603088098504e-09	4.784907285741155e-08	-4.895522849946806e-09	-2.278770144370075e-09	4.149917896659689e-08	2.1229669972852e-08	6.037182163199992e-09
0.01	-0.03689126935739833	0.05658343804413597	0.9203114864898927	0.3089098062157749	-0.2956475463119742	-0.3015311710359909	-0.3882753074349369	0.2501413347909665	0.2501413347909596	-0.1744799562695206	-0.1745312395295539	-0.0008339450761396423	0.0004188429244722413	-0.01340697250027968	-0.01880293764235483	-0.005997912587338446	0.06532781052574459	-0.001476622635570273	0.01516340766060829	-0.06492685225278731	0.04274128757486285	0.04274128757486048	0.01047133506132307	0.0002652262368743329	-0.006001915138055081	-0.00379659978370716	0.06698062263440469	-0.05123882621371518	-0.02078829362706228	-0.2489642472830271	0.1893957967008245	-0.005092127243827733	0.01269713555924035	16.11837515900866	-3.108840711353362	2.894804567497169	12.23765757488269	-646.19687967954	-83.2418036358544	-23.19937617752791	-1.295894893076804	-1.851390171185155	-0.5902840683533368	6.402285889739854	-0.1582897041635327	1.511643778161932	-6.427957831053963	4.207668771988352	4.207668771987966	1.001993700474739	0.03889195916812273	-0.5912721498668162	-0.3874846194731623	2.036228039894898e-09	4.367286039624684e-08	1.794228231896087e-08	2.79032026763743e-09	7.645861342834223e-09	1.156806507417614e-08	2.949416343102608e-09
0.02	-0.03709047485319014	0.05630367316913744	0.9202219992834563	0.3098823565524877	-0.2956702746655306	-0.3013051174661951	-0.3892419765174625	0.2507790226901483	0.250779022690149	-0.1743252144225957	-0.174527683826603	-0.0009226075865381813	0.0003617883062502466	-0.02635815590117579	-0.03705886612603751	-0.01188033580361477	0.1288875851014786	-0.003092156225130975	0.02999138184658913	-0.128117616201344	0.08465904534390685	0.08465904534390434	0.02038385027393696	0.000429024740008486	-0.01167595402936657	-0.007618491554407491	0.06304031247625504	-0.0591447918870944	-0.02022591674823748	-0.2457298478753237	0.183693156450431	0.004758961378603719	0.01634638819012464	14.65824625700952	-7.068703622778032	3.454374451002346	11.82726612533286	-646.9464482126364	-91.13506444803228	-23.2062786864751	-1.316354689084188	-1.801348660668187	-0.5899332967288365	6.351762390741055	-0.1611351208415813	1.441876373201863	-6.188117937670485	4.20116627702745	4.201166277028052	0.9977081552701523	-0.02357298070897755	-0.5360611799969672	-0.3703336929141043	-4.380147008308707e-09	3.949664793508213e-08	4.078008748786855e-08	7.859410679644936e-09	-2.620745628092845e-08	1.906460175500279e-09	-1.383494769947761e-10
0.03	-0.03741671066285113	0.05584395691681773	0.9200742615578139	0.3114811659486398	-0.2957094653987546	-0.3009335102349302	-0.3908298642374164	0.2518309268132384	0.2518309268132423	-0.1740736211518729	-0.1745235453430942	-0.001066907601673682	0.0002666195482058581	-0.03878026078529377	-0.05480615277525309	-0.01764705032394778	0.1905203773420639	-0.004732608844535204	0.04423989460261624	-0.188983382360786	0.1254999348938673	0.1254999348938694	0.02988334749266304	0.0003936367101491073	-0.01717800549660076	-0.01139780838854604	0.05335616736938091	-0.05108980593647672	-0.01874510869919122	-0.2343184011507113	0.1710929337282618	0.004147720425654584	0.02412682138049654	10.53798352834418	-6.216515455622147	3.472374263173271	13.75951977324018	-648.327499669863	-88.17704636273622	-23.21765240267173	-1.188827092878742	-1.749682340278689	-0.567022057830325	6.015949017268673	-0.1635018009235197	1.402807895428959	-5.964324140832401	3.992273677073285	3.992273677073578	0.9183611266900434	0.005729469473064678	-0.5563688350682588	-0.379124012785423	-7.298866835289413e-09	3.92490000424528e-08	5.225557648907343e-08	1.243578990917771e-08	-4.904442407015233e-08	-1.197927742141458e-09	-9.010034463904587e-10
0.04	-0.03786390526231202	0.05520911506335979	0.9198694603813394	0.3136856855425115	-0.2957646609518594	-0.3004221240423802	-0.3930121132561138	0.2532845845084504	0.2532845845084514	-0.1737285747846556	-0.1745199105031377	-0.001266046472477721	0.000134178954995758	-0.05054991386154239	-0.07208398635368533	-0.02329302597007064	0.2500296246447053	-0.00629312020128448	0.05794717410367441	-0.2469898759502849	0.1650097597675454	0.1650097597675489	0.03907446957203566	0.0003282960241860865	-0.02264372516310005	-0.01507285858755331	0.04367202226251962	-0.04303481998586694	-0.01726430065016984	-0.2229069544260913	0.1584927110060909	0.003536479472697065	0.03190725457088266	6.449967752778301	-5.368059757047417	3.488783351301288	15.71817686307484	-649.1750347339662	-85.17648389787564	-23.23328179200555	-1.185864327510331	-1.707458046511518	-0.5657855218868088	5.92705340315229	-0.1451468683106105	1.333629722207957	-5.616263423681895	3.934953341770994	3.934953341770948	0.9360331273994351	-0.02956351192983174	-0.5287948198499915	-0.3494803658878681	-1.014547005977068e-08	3.908235348113347e-08	6.349679093011949e-08	1.70020101452574e-08	-7.165425062567438e-08	-4.167115309658777e-09	-1.61571696525621e-09
0.05	-0.03842615308701843	0.05440435515731498	0.9196086976068122	0.3164750065957265	-0.2958351615481732	-0.2997760725795982	-0.3957605822765336	0.2551271566750639	0.2551271566750623	-0.1732932715006	-0.1745169277781561	-0.001518863060548151	-3.431950324311981e-05	-0.06183195022528786	-0.08873755237534615	-0.02884682439599278	0.3074799456765264	-0.007810052433533945	0.0712007215629805	-0.3022944822816717	0.203319183559991	0.2033191835599924	0.04790722277579171	0.0002763085328026418	-0.02783679159172836	-0.01860003047985305	0.0378860652617195	-0.0419954669180221	-0.01665100407178456	-0.2191470731404932	0.1559171729714299	0.005325165983042507	0.03719231896269799	5.703760622079862	-6.020395390613976	3.599824858877239	14.84933698177892	-649.906769368934	-85.72623232674096	-23.25285182008677	-1.089217590127221	-1.624736070702762	-0.5482858355981213	5.600824406832674	-0.1554341232806544	1.311848271517169	-5.426142360098329	3.751113727669766	3.751113727669459	0.8450620302317103	0.008203364052586141	-0.5021403692627789	-0.350328852430752	-1.512137010810335e-08	2.183216587879034e-08	7.517166356969158e-08	2.047043277176783e-08	-9.830630328850423e-08	-1.253548787409961e-08	-4.831371958974564e-09
0.06	-0.03909919013522489	0.05343697355291168	0.919292775081495	0.3198281914499871	-0.2959209250113297	-0.2989993594394784	-0.3990498139847135	0.2573472584455377	0.2573472584455367	-0.1727720075618339	-0.1745142209817172	-0.001821125875883473	-0.0002372883307109335	-0.07270775856186235	-0.104608326025384	-0.03432497612804641	0.3628023848537718	-0.009345693569726251	0.08407950957129512	-0.3551424135023117	0.2405156805399732	0.2405156805399724	0.05626660051426868	0.0002731103132259653	-0.03253297061609801	-0.02196693243334196	0.03210010826091775	-0.04095611385017358	-0.01603770749338538	-0.2153871918548951	0.1533416349367712	0.007113852493392343	0.04247738335450941	4.986106501415871	-6.675701678147012	3.709022680404589	14.00345091181692	-650.1641579541517	-86.23542129566292	-23.2760421404545	-1.104618722076143	-1.550899572186918	-0.5506561831131092	5.501477032237158	-0.1488886490991891	1.258677832009589	-5.124928401532555	3.71236797927829	3.712367979278254	0.8413580343435997	-0.01980565756855328	-0.4294173389982632	-0.3174263781257166	-2.018692475954554e-08	3.862671285246224e-09	8.686479550183318e-08	2.389263234103324e-08	-1.25128554945326e-07	-2.113119454367405e-08	-8.15232975163408e-09
0.07000000000000001	-0.03987906695031774	0.05231470528261183	0.9189223921668949	0.3237242130525768	-0.2960220135093874	-0.2980963279675642	-0.4028550447509302	0.2599337511520081	0.2599337511520058	-0.1721692506932447	-0.1745118033586071	-0.00216803267108739	-0.0004730442712575224	-0.08319364316973181	-0.1197233735831151	-0.03974212349099053	0.4160467765132025	-0.01086583685834275	0.09644423597524268	-0.4054925285567598	0.2765849095261648	0.2765849095261811	0.06421880492006377	0.0002082022537932993	-0.03678286062198933	-0.02515356033968488	0.02517571697762438	-0.03841861674383322	-0.01525071478181269	-0.2103283171326969	0.1492373890914726	0.008314195468430317	0.04853070764190871	3.740878612107545	-7.003732923702462	3.789593255930218	13.61751337562917	-650.585180631963	-85.92528074105735	-23.30249522922026	-1.009477514549804	-1.47350935984664	-0.5358468685713832	5.182645355596108	-0.1526573327036531	1.212972462915234	-4.928371379794392	3.524509344806958	3.524509344809518	0.7622621892817181	-0.0001488180706264431	-0.4129448292180525	-0.3146872293601539	-2.366131547991546e-08	-1.199822573972164e-08	9.357521446618139e-08	2.629066934538876e-08	-1.440321840523822e-07	-2.704674757260622e-08	-1.061967667888913e-08
0.08	-0.04076158344836937	0.05104494613427857	0.9184981172075282	0.3281420235963235	-0.2961381194731239	-0.2970721287479456	-0.4071514403321695	0.2628749979456448	0.2628749979456426	-0.171488949671482	-0.1745100979036683	-0.002555472365916807	-0.00073974773736185	-0.09323569515390648	-0.1341065016320654	-0.04510338508138499	0.4671601730846338	-0.01234918670539125	0.1083130591123065	-0.4533753765069485	0.3114664979730505	0.3114664979730841	0.07177543114922931	0.0001306766767604458	-0.04063955054122033	-0.02815643754489091	0.01825132569434756	-0.03588111963748997	-0.01446372207024411	-0.2052694424104867	0.145133143246179	0.009514538443473023	0.05458403192931664	2.521092708163367	-7.334168904167509	3.868205816359549	13.24828280462854	-650.585882626678	-85.5778626423683	-23.33184859297813	-1.015852197337193	-1.404515670430749	-0.5394790286031792	5.075278014637258	-0.1415299607855947	1.1594971786328	-4.631474980680664	3.474839871417099	3.4748398714171	0.7622423990176758	-0.02232916108863293	-0.3507773216662083	-0.2806762378983519	-2.703305046279683e-08	-2.77230842118781e-08	9.996416807776872e-08	2.862263134555654e-08	-1.624249342852599e-07	-3.278938746343241e-08	-1.303195193740841e-08
0.09	-0.04174258973897744	0.04963502775940005	0.9180204438270667	0.3330607506136234	-0.2962688466613826	-0.2959317472787257	-0.4119143377808141	0.2661593039867883	0.2661593039867864	-0.1707349624179464	-0.1745092896997689	-0.00297945832978365	-0.00103551208586906	-0.1029016827731789	-0.1477528656793587	-0.05042544749922261	0.5162423554554288	-0.01379052918992389	0.1196948703861165	-0.4988128972441613	0.3451995863317665	0.345199586331804	0.07895245005533248	4.213327838765237e-05	-0.0440899614590478	-0.03096564527848468	0.01154372418154556	-0.03382947701218336	-0.01377282128938382	-0.2011672876807608	0.1423461280355618	0.01073266218536037	0.06051180381564052	1.716195847208988	-7.730753156960304	3.941123691679866	12.58843400554953	-650.7359256041345	-85.38991917645036	-23.36368959009309	-0.9323874692946268	-1.326044860037967	-0.5277261038689587	4.773256301066155	-0.1445793927558411	1.117249342463134	-4.441208223598249	3.293277374854727	3.293277374855323	0.6849974315232428	-0.0004216922936872173	-0.3320210788168831	-0.2764319372791032	-2.997200635879236e-08	-4.555762205437343e-08	1.04788567219208e-07	2.99665485278042e-08	-1.764054566833709e-07	-3.7781863944932e-08	-1.568916523456534e-08
